# xmcd
#
# Track frame offsets:
#	150
#	19935
#	42582
#	58347
#	80795
#	99415
#	119060
#	134317
#	155947
#	176832
#	194765
#	212027
#	231207
#	257210
#	282002
#
# Disc length: 4016 seconds
#
# Revision: 1
# Processed by: cddbd v1.5.2PL0 Copyright (c) Steve Scherf et al.
# Submitted via: audiograbber 1.83.01
#
DISCID=f10fae0f
DTITLE=SHIRLEY BASSEY - THIS IS MY LIFE [CD4)
DYEAR=1900
DGENRE=
TTITLE0=THE RHYTHM DIVINE
TTITLE1=SLAVE TO THE RHYTHM
TTITLE2=ELEANOR RIGBY
TTITLE3=I WANT TO KNOW WHAT LOVE IS
TTITLE4=THAT'S WHAT FRIENDS ARE FOR
TTITLE5=WIND BENEATH MY WINGS
TTITLE6=YESTERDAY
TTITLE7=HOW DO YOU KEEP THE MUSIC PLAYING
TTITLE8=THE POWER OF LOVE
TTITLE9=ALL I ASK OF YOU
TTITLE10=SORRY SEEMS TO BE THE HARDEST WORRD
TTITLE11=HE WAS BEAUTIFUL
TTITLE12=STILL
TTITLE13=THE GREATEST LOVE OF ALL
TTITLE14=THE SHOW MUST GO ON
EXTD=
EXTT0=
EXTT1=
EXTT2=
EXTT3=
EXTT4=
EXTT5=
EXTT6=
EXTT7=
EXTT8=
EXTT9=
EXTT10=
EXTT11=
EXTT12=
EXTT13=
EXTT14=
PLAYORDER=
